<?xml version="1.0" encoding="utf-8"?>
<svg viewBox="144.509 118.705 122.644 120.89" xmlns="http://www.w3.org/2000/svg">
  <ellipse style="fill: rgb(73, 152, 231);" cx="206.311" cy="179.389" rx="60.206" ry="60.206"/>
  <path d="M 267.153 179.46 C 267.153 184.448 266.546 189.295 265.402 193.933 C 256.461 188.985 244.987 186.012 232.475 186.012 C 203.933 186.012 180.795 201.484 180.795 220.57 C 180.795 226.68 183.166 232.42 187.327 237.4 C 162.504 229.626 144.509 206.625 144.509 179.46 C 144.509 145.906 171.964 118.705 205.831 118.705 C 239.698 118.705 267.153 145.906 267.153 179.46 Z" style="fill: rgb(132, 237, 202);"/>
  <path d="M 144.754 179.723 C 144.754 166.316 149.114 153.928 156.494 143.898 C 168.131 146.538 183.167 148.244 199.743 148.546 C 199.099 152.075 198.762 155.711 198.762 159.426 C 198.762 170.987 202.022 181.786 207.673 190.955 C 191.879 196.868 181.202 208.165 181.202 221.13 C 181.202 227.074 183.446 232.667 187.399 237.552 C 162.701 229.931 144.754 206.923 144.754 179.723 Z" style="fill: rgb(91, 94, 142);"/>
  <ellipse style="fill: rgb(196, 227, 234);" cx="206.79" cy="176.989" rx="28.811" ry="28.811"/>
</svg>